<?xml version="1.0" encoding="utf-8"?>
<!-- Generator: Adobe Illustrator 15.1.0, SVG Export Plug-In . SVG Version: 6.00 Build 0)  -->
<!DOCTYPE svg PUBLIC "-//W3C//DTD SVG 1.1//EN" "http://www.w3.org/Graphics/SVG/1.1/DTD/svg11.dtd">
<svg version="1.1" id="Camada_1" xmlns="http://www.w3.org/2000/svg" xmlns:xlink="http://www.w3.org/1999/xlink" x="0px" y="0px"
	 width="230.4px" height="55.2px" viewBox="0 0 230.4 55.2" enable-background="new 0 0 230.4 55.2" xml:space="preserve">
<path d="M10.547,51.359l5.049-8.875H20.5h5.406l4.578-7.438c0,0,1.088-1.565,0-2.898c0.016,0.021-3.588-6.229-3.588-6.229
	s-0.99-0.949-0.021-2.886c0.971-1.938,4.875-8.188,4.875-8.188l7.813,13.469c0,0,2.521,3.313,0,8.438
	c-0.021,0-6.938,11.916-6.938,11.916s-1.083,2.416-2.875,2.416S10.547,51.359,10.547,51.359z"/>
<path fill="#99A7B2" d="M36.808,6.006l-5.057,8.864l-4.896-0.011l-5.396-0.012l-4.584,7.428c0,0-1.089,1.565-0.006,2.9
	c-0.016-0.021,3.567,6.238,3.567,6.238s0.983,0.95,0.015,2.887c-0.97,1.937-4.882,8.177-4.882,8.177L7.807,28.991
	c0,0-2.509-3.319,0.019-8.438c0.021,0,6.948-11.902,6.948-11.902s1.086-2.413,2.874-2.409C19.436,6.246,36.808,6.006,36.808,6.006z"
	/>
<path fill="#211915" d="M42.712,42.475l2.245-5.695h23.877l1.172-2.748c0,0,0.961-2.313-1.026-2.313s-16.252,0-16.252,0
	s-5.415-2.094-1.635-9.423c0.385-0.699,1.988-3.985,1.988-3.985s2.029-3.84,4.765-3.432c0.043-0.059,32.138-0.029,32.138-0.029
	l-2.157,5.149l-22.84,0.007l-1.031,2.321c0,0-1.411,3.141,1.025,3.375c2.393,0.06,15.728,0,15.728,0s5.213,0.989,2.351,7.737
	c-2.862,6.748-3.89,9.042-3.89,9.042H42.712V42.475z"/>
<path fill="#211915" d="M110.906,42.104l2.2-5.005H99.131c0,0-2.628-0.319,0-4.771c0,0.059,4.381-10.326,4.381-10.326
	s0.705-2.007,2.244-2.007c1.538,0,14.531,0,14.531,0l2.073-5.003H96.822c0,0-3.376-0.029-5.577,5.701l-6.176,14.37
	c0,0-2.724,6.604,2.564,7.041S110.906,42.104,110.906,42.104z"/>
<path fill="#211915" d="M157.627,14.858c-4.227-0.059-28.513,0-28.513,0s-3.199-0.176-5.25,4.589
	c-2.048,4.766-6.529,15.358-6.529,15.358s-2.687,7.67,2.52,7.67h28.339c0,0,2.731,0.859,5.506-5.376
	c2.775-6.236,6.701-16.122,6.701-16.122S161.851,14.918,157.627,14.858z M153.192,23.722c0,0-2.677,6.742-4.571,10.992
	c-1.889,4.25-3.752,3.656-3.752,3.656h-19.32c-3.553,0-1.72-5.224-1.72-5.224s3.061-7.218,4.455-10.466
	c1.394-3.247,3.582-3.126,3.582-3.126s16.556-0.039,19.433,0C154.183,19.591,153.192,23.722,153.192,23.722z"/>
<path fill="none" d="M151.299,19.554c-2.878-0.039-19.433,0-19.433,0s-2.188-0.121-3.582,3.126
	c-1.394,3.246-4.455,10.466-4.455,10.466s-1.833,5.224,1.72,5.224h19.32c0,0,1.863,0.594,3.752-3.656
	c1.895-4.25,4.571-10.992,4.571-10.992S154.183,19.591,151.299,19.554z"/>
<path fill="none" d="M150.646,19.554c-2.715-0.039-18.326,0-18.326,0s-2.064-0.121-3.377,3.126
	c-1.314,3.246-4.202,10.466-4.202,10.466s-1.728,5.224,1.622,5.224h18.219c0,0,1.759,0.594,3.539-3.656
	c1.787-4.25,4.311-10.992,4.311-10.992S153.367,19.591,150.646,19.554z"/>
<polygon fill="#211915" points="164.114,42.514 176.998,42.514 186.228,20.112 195.14,20.112 197.32,14.832 164.561,14.832 
	162.254,20.566 173.408,20.566 "/>
<polygon fill="#211915" points="197.673,42.558 210.347,42.558 219.427,20.121 228.19,20.121 230.334,14.832 198.115,14.832 
	195.844,20.576 206.816,20.576 "/>
</svg>
