<?xml version="1.0" encoding="utf-8"?>
<!-- Generator: Adobe Illustrator 15.1.0, SVG Export Plug-In . SVG Version: 6.00 Build 0)  -->
<!DOCTYPE svg PUBLIC "-//W3C//DTD SVG 1.1//EN" "http://www.w3.org/Graphics/SVG/1.1/DTD/svg11.dtd">
<svg version="1.1" id="Camada_1" xmlns="http://www.w3.org/2000/svg" xmlns:xlink="http://www.w3.org/1999/xlink" x="0px" y="0px"
	 width="230.4px" height="55.2px" viewBox="0 0 230.4 55.2" enable-background="new 0 0 230.4 55.2" xml:space="preserve">
<polygon opacity="0.9" fill="#211915" enable-background="new    " points="228.551,41.956 228.541,39.967 45.556,40.941 
	45.569,42.929 "/>
<path d="M10.547,51.359l5.049-8.875H20.5h5.406l4.578-7.438c0,0,1.088-1.565,0-2.898c0.016,0.021-3.588-6.229-3.588-6.229
	s-0.99-0.949-0.021-2.886c0.971-1.938,4.875-8.188,4.875-8.188l7.813,13.469c0,0,2.521,3.313,0,8.438
	c-0.021,0-6.938,11.916-6.938,11.916s-1.083,2.416-2.875,2.416S10.547,51.359,10.547,51.359z"/>
<path fill="#99A7B2" d="M36.808,6.006l-5.057,8.864l-4.896-0.011l-5.396-0.012l-4.584,7.428c0,0-1.089,1.565-0.006,2.9
	c-0.016-0.021,3.567,6.238,3.567,6.238s0.983,0.95,0.015,2.887c-0.97,1.937-4.882,8.177-4.882,8.177L7.807,28.991
	c0,0-2.509-3.319,0.019-8.438c0.021,0,6.948-11.902,6.948-11.902s1.086-2.413,2.874-2.409C19.436,6.246,36.808,6.006,36.808,6.006z"
	/>
<path fill="#211915" d="M45.578,38.641l2.188-4.078h23.279l1.143-1.969c0,0,0.938-1.656-1-1.656c-1.938,0-15.846,0-15.846,0
	s-5.279-1.5-1.594-6.75c0.375-0.5,1.938-2.854,1.938-2.854s1.979-2.75,4.646-2.458c0.042-0.042,31.333-0.021,31.333-0.021
	l-2.104,3.688l-22.268,0.005L66.29,24.21c0,0-1.375,2.25,1,2.417c2.333,0.042,15.333,0,15.333,0s5.083,0.709,2.292,5.542
	c-2.791,4.834-3.792,6.476-3.792,6.476H45.578V38.641z"/>
<path fill="#211915" d="M112.063,38.375l2.146-3.584h-13.625c0,0-2.563-0.229,0-3.416c0,0.041,4.271-7.396,4.271-7.396
	s0.688-1.438,2.188-1.438s14.167,0,14.167,0l2.021-3.583H98.333c0,0-3.292-0.021-5.438,4.083l-6.021,10.292
	c0,0-2.656,4.731,2.5,5.043C94.53,38.688,112.063,38.375,112.063,38.375z"/>
<path fill="#211915" d="M157.614,18.862c-4.12-0.042-27.798,0-27.798,0s-3.12-0.126-5.118,3.287
	c-1.997,3.413-6.366,10.999-6.366,10.999s-2.62,5.493,2.456,5.493h27.629c0,0,2.663,0.617,5.368-3.85s6.533-11.546,6.533-11.546
	S161.733,18.905,157.614,18.862z M153.291,25.21c0,0-2.609,4.83-4.457,7.873c-1.841,3.045-3.658,2.619-3.658,2.619H126.34
	c-3.464,0-1.677-3.742-1.677-3.742s2.983-5.169,4.344-7.496c1.358-2.326,3.492-2.239,3.492-2.239s16.141-0.028,18.945,0
	C154.258,22.252,153.291,25.21,153.291,25.21z"/>
<path fill="none" d="M151.444,22.225c-2.806-0.028-18.945,0-18.945,0s-2.134-0.087-3.492,2.239
	c-1.359,2.325-4.344,7.496-4.344,7.496s-1.787,3.742,1.677,3.742h18.836c0,0,1.817,0.426,3.658-2.619
	c1.848-3.043,4.457-7.873,4.457-7.873S154.258,22.252,151.444,22.225z"/>
<path fill="none" d="M150.808,22.225c-2.646-0.028-17.866,0-17.866,0s-2.013-0.087-3.293,2.239
	c-1.281,2.325-4.097,7.496-4.097,7.496s-1.685,3.742,1.581,3.742h17.763c0,0,1.715,0.426,3.45-2.619
	c1.742-3.043,4.203-7.873,4.203-7.873S153.462,22.252,150.808,22.225z"/>
<polygon fill="#211915" points="163.938,38.67 176.5,38.67 185.5,22.625 194.188,22.625 196.313,18.843 164.375,18.843 
	162.125,22.95 173,22.95 "/>
<polygon fill="#211915" points="196.657,38.702 209.014,38.702 217.866,22.631 226.41,22.631 228.5,18.843 197.088,18.843 
	194.875,22.957 205.571,22.957 "/>
<polygon opacity="0.5" fill="#211915" enable-background="new    " points="228.551,44.917 228.541,42.929 45.556,43.903 
	45.569,45.891 "/>
<polygon opacity="0.3" fill="#211915" enable-background="new    " points="228.551,47.879 228.541,45.891 45.556,46.866 
	45.569,48.853 "/>
</svg>
